Out. Of.Time.2003.DvDRipXvid.IARG
 
http://www.imdb.com/title/tt0313443/

Out of Time  (2003)
PG_13    -  Crime | Drama | Thriller   -  3 October 2003 (USA) 
ENGLISH
 
http://i1178.photobucket.com/albums/x374/IARG1/outoftime2003.jpg

A Florida police chief must solve a vicious double homicide before he himself falls under suspicion.
 
http://i1178.photobucket.com/albums/x374/IARG1/OutOfTime2003DvDRipXvidIARGavi_thumbs_20110626_121529.jpg

Director:
Carl Franklin

Writer:
David Collard

Stars:
Denzel Washington, Sanaa Lathan and Eva Mendes 


Format                           : AVI
Format/Info                      : Audio Video Interleave
File size                        : 700 MiB
Duration                         : 1h 45mn
Overall bit rate                 : 929 Kbps
Writing application              : VirtualDubMod 1.5.4.1 (build 2178/release)
Writing library                  : VirtualDubMod build 2178/release

Video
ID                               : 0
Format                           : MPEG-4 Visual
Format profile                   : Advanced Simple@L5
Format settings, BVOP            : 1
Format settings, QPel            : No
Format settings, GMC             : No warppoints
Format settings, Matrix          : Custom
Codec ID                         : XVID
Codec ID/Hint                    : XviD
Duration                         : 1h 45mn
Bit rate                         : 801 Kbps
Width                            : 624 pixels
Height                           : 272 pixels
Display aspect ratio             : 2.25:1
Frame rate                       : 23.976 fps
Color space                      : YUV
Chroma subsampling               : 4:2:0
Bit depth                        : 8 bits
Scan type                        : Progressive
Compression mode                 : Lossy
Bits/(Pixel*Frame)               : 0.197
Stream size                      : 604 MiB (86%)
Writing library                  : XviD 64

Audio
ID                               : 1
Format                           : MPEG Audio
Format version                   : Version 1
Format profile                   : Layer 3
Mode                             : Joint stereo
Mode extension                   : MS Stereo
Codec ID                         : 55
Codec ID/Hint                    : MP3
Duration                         : 1h 45mn
Bit rate mode                    : Variable
Bit rate                         : 115 Kbps
Nominal bit rate                 : 128 Kbps
Channel(s)                       : 2 channels
Sampling rate                    : 48.0 KHz
Compression mode                 : Lossy
Stream size                      : 86.5 MiB (12%)
Alignment                        : Aligned on interleaves
Interleave, duration             : 24 ms (0.58 video frame)
Interleave, preload duration     : 160 ms
Writing library                  : LAME3.98r
Encoding settings                : -m j -V 4 -q 2 -lowpass 17 --abr 128
Language                         : English



